<svg width="352" height="271" viewBox="0 0 352 271" fill="none" xmlns="http://www.w3.org/2000/svg">
<path d="M11 14H60.0455L98.301 46V108.5L60.0455 79V226L55 220L50.5 215.5L48.765 213L47.5 210.5L48.765 205H53L45.5 202.5L47.5 199.5L48.765 198L60.0455 205V230.5L11.9809 161.5L11.4904 160L11 14Z" fill="white"/>
<path d="M185.112 14H136.066L97.8105 46V108.5L136.066 79V260.5H154.5H185.112V14Z" fill="white"/>
<path d="M237.1 14.2222H188.054V79.2222V260.5L237.1 227.5V49.2222H266.037L278.298 50.7222L288.598 55.2222L293.012 58.7222L297.426 64.2222L300.369 70.7222L301.84 78.2222V86.7222L300.859 93.2222L298.897 100.222L293.012 108.222L284.674 114.222L277.317 116.722L270.451 117.722H267.999H237.1V152.222H273.884H277.808L282.222 151.722L289.579 150.722L294.974 149.722L298.897 148.722L325.872 132.722L336.172 120.222L337.153 118.222L338.624 115.722L339.605 113.222L341.076 109.722L342.548 105.222L343.529 102.222L344.019 99.2222L344.51 95.7222L345 90.2222V82.2222V79.2222V76.2222V75.2222L344.51 71.2222L343.529 66.2222L342.548 61.7222L341.567 58.7222L340.095 54.2222L336.172 46.2222L332.739 41.2222L329.305 36.7222L326.853 34.2222C326.853 34.2222 322.439 30.7222 322.439 30.2222L318.515 27.2222L310.178 22.2222C310.178 22.2222 307.235 20.7222 304.292 19.7222C301.349 18.7222 293.993 14.7222 275.846 14.2222C257.699 13.7222 237.1 14.2222 237.1 14.2222Z" fill="white"/>
<path d="M237.1 14.0864H271.432V151.586H237.1V14.0864Z" fill="white"/>
<path d="M345 81.0865C345 138.586 306.744 151.587 271.432 151.587C240.552 151.587 231.214 116.709 231.214 81.0865C231.214 45.4641 240.552 14.0865 271.432 14.0865C321.458 12.0864 345 45.0726 345 81.0865Z" fill="white"/>
<path d="M299.387 81.4998C299.387 101.5 284.895 116 267.018 116C221.406 117 238.081 88.7774 238.081 69.9997C241.023 67 218.954 46.9999 267.018 47C284.895 47 299.387 61.4999 299.387 81.4998Z" fill="black"/>
<rect x="234.157" y="47" width="33.3509" height="69" fill="black"/>
</svg>
