<svg width="400" height="400" viewBox="0 0 400 400" fill="none" xmlns="http://www.w3.org/2000/svg">
<path d="M41 128H90.0455L128.301 160V222.5L90.0455 193V340L85 334L80.5 329.5L78.765 327L77.5 324.5L78.765 319H83L75.5 316.5L77.5 313.5L78.765 312L90.0455 319V344.5L41.9809 275.5L41.4905 274L41 128Z" fill="white"/>
<path d="M215.112 128H166.066L127.811 160V222.5L166.066 193V374.5H184.5H215.112V128Z" fill="white"/>
<path d="M267.1 128.222H218.054V193.222V374.5L267.1 341.5V163.222H296.037L308.298 164.722L318.598 169.222L323.012 172.722L327.426 178.222L330.369 184.722L331.84 192.222V200.722L330.859 207.222L328.897 214.222L323.012 222.222L314.674 228.222L307.317 230.722L300.451 231.722H297.999H267.1V266.222H303.884H307.808L312.222 265.722L319.579 264.722L324.974 263.722L328.897 262.722L355.872 246.722L366.172 234.222L367.153 232.222L368.624 229.722L369.605 227.222L371.076 223.722L372.548 219.222L373.529 216.222L374.019 213.222L374.51 209.722L375 204.222V196.222V193.222V190.222V189.222L374.51 185.222L373.529 180.222L372.548 175.722L371.567 172.722L370.095 168.222L366.172 160.222L362.739 155.222L359.305 150.722L356.853 148.222C356.853 148.222 352.439 144.722 352.439 144.222L348.515 141.222L340.178 136.222C340.178 136.222 337.235 134.722 334.292 133.722C331.349 132.722 323.993 128.722 305.846 128.222C287.699 127.722 267.1 128.222 267.1 128.222Z" fill="white"/>
<path d="M267.1 128.086H301.432V265.586H267.1V128.086Z" fill="white"/>
<path d="M375 195.087C375 252.586 336.744 265.587 301.432 265.587C270.552 265.587 261.214 230.709 261.214 195.087C261.214 159.464 270.552 128.087 301.432 128.087C351.458 126.086 375 159.073 375 195.087Z" fill="white"/>
<path d="M329.387 195.5C329.387 215.5 314.895 230 297.018 230C251.406 231 268.081 202.777 268.081 184C271.023 181 248.954 161 297.018 161C314.895 161 329.387 175.5 329.387 195.5Z" fill="#181818"/>
<rect x="264.157" y="161" width="33.3509" height="69" fill="#181818"/>
</svg>
